<?xml version="1.0" encoding="UTF-8"?><svg xmlns="http://www.w3.org/2000/svg" xmlns:xlink="http://www.w3.org/1999/xlink" height="110.4" preserveAspectRatio="xMidYMid meet" version="1.0" viewBox="-1.4 -0.1 152.3 110.4" width="152.3" zoomAndPan="magnify"><g id="change1_1"><path d="M113.2,84.36c-6.45,1.28-12.27,2.49-18.1,3.58c-10.38,1.94-20.82,3.45-31.39,3.72 c-3.08,0.08-6.2-0.75-9.24-0.48c-6.71,0.58-13.23-0.78-19.76-1.66c-5.25-0.71-10.51-2.12-15.49-3.96 C8.96,81.77,3.11,74.07,1.02,63.36c-2.46-12.57-0.46-24.38,5.75-35.52c5.79-10.4,13.79-18.93,22.76-26.61 c0.58-0.49,1.28-0.85,1.96-1.2c0.18-0.1,0.5,0.06,0.75,0.1c2.72,5.23,2.02,10.55-1.61,15.05c-5.4,6.69-10.8,13.4-15.87,20.34 c-3.62,4.95-6.35,10.47-8.27,16.36c-1.08,3.29-0.6,6.04,1.5,8.78c2.95,3.82,6.67,6.58,10.96,8.64c5.95,2.86,12.3,4.27,18.81,5.09 c10.69,1.33,21.36,0.77,32.03-0.27c16.12-1.57,32-4.55,47.72-8.38c0.98-0.24,1.91-0.66,3.69-1.3c-1.99-0.63-3.17-1.05-4.36-1.39 c-6.02-1.73-12.07-3.37-18.06-5.17c-5.5-1.65-5.96-2.43-5.47-8.05c0.62-7.16,1.37-7.7,8.33-6.2c9.57,2.07,19.11,4.23,28.72,6.11 c5.37,1.05,10.84,1.61,16.26,2.41c1.25,0.18,2.48,0.46,3.95,0.74c-0.05,3.49,0.26,6.71-0.24,9.8c-0.79,4.87-2.44,9.22-7.16,12.16 c-5.18,3.23-9.84,7.28-14.75,10.95c-5.69,4.25-10.47,9.41-14.78,14.99c-1.24,1.61-1.98,3.62-2.91,5.46 c-0.61,1.21-1.14,2.45-1.87,4.05c-2.1-2.19-2.27-4.3-2.15-6.52c0.28-5.58,1.78-10.79,4.53-15.64 C111.82,87.04,112.37,85.93,113.2,84.36z M86.6,87.44c1.22,0.09,2.48,0.42,3.65,0.22c5.57-0.96,11.12-2.06,16.69-3.16 c1.94-0.52,3.88-1.04,5.82-1.56c-0.09-0.25-0.18-0.5-0.27-0.74c-1.87,0.8-3.74,1.61-5.61,2.41c-1.09-0.09-2.23-0.42-3.28-0.24 c-5.7,0.98-11.37,2.09-17.06,3.18c-2.31,0.33-4.62,0.66-6.93,0.99c0.08,0.32,0.16,0.65,0.24,0.97C82.1,88.82,84.35,88.13,86.6,87.44 z M67.87,90.48c0.02-0.19,0.04-0.39,0.05-0.58c-0.57,0.02-1.13,0.05-1.7,0.07c0,0.14,0,0.27,0,0.41 C66.76,90.41,67.32,90.44,67.87,90.48z" fill="#FFF"/></g></svg>